<svg width="35" height="39" viewBox="0 0 35 39" fill="none" xmlns="http://www.w3.org/2000/svg">
<path d="M14.0503 38.2929C13.0898 38.0047 12.2253 37.5725 11.4569 36.8521C10.3523 35.8435 9.19965 34.787 8.04701 33.7784C6.0299 32.0014 4.06081 30.2244 2.0437 28.3994C1.41935 27.8231 1.41935 27.7751 2.0437 27.2468C3.62857 25.854 5.16542 24.4613 6.75029 23.0685C7.23056 22.6362 7.37465 22.6843 7.85491 23.1165C9.72795 24.8455 11.601 26.5744 13.474 28.3514C14.2905 29.0718 14.6266 29.1198 15.3951 28.3514C17.9405 25.9501 20.4859 23.5968 23.0313 21.1955C23.6076 20.6672 23.5596 20.0428 22.9352 19.5145C21.2543 18.0257 19.5734 16.5849 17.9405 15.0961C17.2201 14.4237 16.4517 13.7994 15.7313 13.127C15.251 12.6467 15.251 12.3586 15.7793 11.8783C17.5082 10.2454 19.2852 8.61251 21.0142 6.93158C21.4464 6.54737 21.6385 6.54737 22.2148 7.02763C24.0398 8.61251 25.8648 10.1494 27.6418 11.7823C29.803 13.7033 31.9162 15.6724 34.0294 17.6415C34.7017 18.2658 35.134 19.0343 34.8938 19.9948C34.7017 20.8112 34.3175 21.6277 33.6932 22.204C32.2524 23.5007 30.8596 24.7974 29.4188 26.0942C25.7688 29.408 22.1188 32.7218 18.5168 36.0356C17.9885 36.5159 17.4122 37.0442 16.7878 37.4284C16.2115 37.7646 15.5872 38.0047 14.9628 38.2929C14.6266 38.2929 14.3385 38.2929 14.0503 38.2929Z" fill="#108B62"/>
<path d="M12.8533 12.5026C12.6612 12.7428 12.5652 12.9829 12.3731 13.175C10.6921 14.7599 9.01121 16.3448 7.28226 17.9296C6.70594 18.506 6.51384 18.554 5.88949 18.0257C4.54475 16.9211 3.20001 15.7684 1.85527 14.6158C1.375 14.1836 0.846706 13.7513 0.366441 13.3191C-0.113824 12.8869 -0.113827 12.5987 0.318411 12.1665C2.04737 10.5336 3.77631 8.90066 5.50527 7.26776C6.03356 6.78749 6.36975 6.73946 6.94607 7.21973C8.77107 8.75658 10.5481 10.3415 12.3731 11.8783C12.5652 12.0224 12.7093 12.2625 12.8533 12.5026Z" fill="#108B62"/>
<path d="M14.1018 11.5902C13.8617 11.4941 13.6696 11.3981 13.4775 11.302C11.6525 9.71714 9.77945 8.13227 7.95444 6.54739C7.42615 6.11516 7.42615 5.827 7.90641 5.34673C9.77944 3.61778 11.6525 1.88882 13.4775 0.159869C13.7656 -0.12829 14.0538 0.0157897 14.342 0.255922C15.8308 1.55264 17.3196 2.84935 18.8084 4.14607C19.1926 4.48225 19.6249 4.81844 20.0091 5.20265C20.4413 5.63489 20.4413 5.87502 20.0091 6.30726C18.2321 7.98819 16.5032 9.66912 14.7262 11.302C14.5821 11.3981 14.342 11.4461 14.1018 11.5902Z" fill="#108B62"/>
</svg>
