<svg width="180" height="39" viewBox="0 0 180 39" fill="none" xmlns="http://www.w3.org/2000/svg">
<path d="M158.536 38.2929C157.575 38.0047 156.711 37.5725 155.942 36.8521C154.838 35.8435 153.685 34.787 152.533 33.7784C150.515 32.0014 148.546 30.2244 146.529 28.3994C145.905 27.8231 145.905 27.7751 146.529 27.2468C148.114 25.854 149.651 24.4613 151.236 23.0685C151.716 22.6363 151.86 22.6843 152.341 23.1165C154.214 24.8455 156.087 26.5744 157.96 28.3514C158.776 29.0718 159.112 29.1198 159.881 28.3514C162.426 25.9501 164.971 23.5968 167.517 21.1955C168.093 20.6672 168.045 20.0428 167.421 19.5145C165.74 18.0257 164.059 16.5849 162.426 15.0961C161.706 14.4237 160.937 13.7994 160.217 13.127C159.737 12.6467 159.737 12.3586 160.265 11.8783C161.994 10.2454 163.771 8.61252 165.5 6.93159C165.932 6.54738 166.124 6.54738 166.7 7.02764C168.525 8.61252 170.35 10.1494 172.127 11.7823C174.289 13.7033 176.402 15.6724 178.515 17.6415C179.187 18.2658 179.62 19.0343 179.379 19.9948C179.187 20.8112 178.803 21.6277 178.179 22.204C176.738 23.5007 175.345 24.7974 173.904 26.0942C170.254 29.408 166.604 32.7218 163.002 36.0357C162.474 36.5159 161.898 37.0442 161.273 37.4284C160.697 37.7646 160.073 38.0047 159.448 38.2929C159.112 38.2929 158.824 38.2929 158.536 38.2929Z" fill="#108B62"/>
<path d="M40.3929 9.61972C42.5541 7.07431 44.8594 4.38483 47.2127 1.64732C47.9811 2.31969 48.6535 2.99206 49.4219 3.66443C48.0772 5.2493 46.7805 6.83418 45.3397 8.46708C45.6278 8.46708 45.7719 8.51511 45.916 8.51511C48.3653 8.51511 50.8147 8.51511 53.264 8.51511C55.7614 8.51511 57.5384 10.2441 57.5384 12.7414C57.5384 13.1257 57.5384 13.4618 57.5384 13.8461C57.5384 14.2783 57.7785 14.5184 58.2108 14.5184C59.4114 14.5184 60.5641 14.5184 61.7647 14.5184C62.245 14.5184 62.4371 14.2303 62.4371 13.702C62.4371 12.2612 62.4371 10.8204 62.4371 9.42761C62.4371 8.99537 62.5332 8.85129 62.9654 8.89932C63.6858 8.94735 64.3582 8.89932 65.0786 8.89932C65.4148 8.89932 65.5108 8.94735 65.5108 9.33156C65.5108 10.9645 65.5108 12.5493 65.5108 14.1822C65.4628 16.2954 63.4937 18.1684 61.3805 18.1684C60.5641 18.1684 59.7476 18.1684 58.8832 18.1684C58.0187 18.1684 57.2022 17.9283 56.4338 17.5441C56.2417 17.448 55.9535 17.448 55.7614 17.5441C54.945 17.9283 54.1285 18.1684 53.264 18.1684C48.5094 18.1684 43.7068 18.1684 38.9521 18.1684C36.935 18.1684 35.158 16.5836 34.8699 14.6145C34.8219 14.2303 34.7738 13.8461 34.7738 13.4138C34.7738 10.052 34.7738 6.6901 34.7738 3.37627C34.7738 2.94403 34.8699 2.79995 35.3502 2.79995C36.0225 2.84798 36.6469 2.84798 37.3192 2.79995C37.7995 2.75193 37.8956 2.89601 37.8956 3.37627C37.8956 6.6901 37.8956 10.0039 37.8956 13.2697C37.8956 13.4138 37.8956 13.5579 37.8956 13.702C37.9436 14.2783 38.1357 14.5184 38.76 14.5184C41.0173 14.5184 43.3226 14.5184 45.5798 14.5184C48.2693 14.5184 50.9107 14.5184 53.6002 14.5184C54.5127 14.5184 54.5608 14.4224 54.5608 13.5579C54.5608 13.2697 54.5608 12.9335 54.5608 12.6454C54.5608 12.1171 54.3206 11.925 53.7923 11.877C53.12 11.877 52.4476 11.877 51.7752 11.877C48.8936 11.877 45.964 11.877 43.0824 11.877C42.7462 11.877 42.4581 11.8289 42.2179 11.5408C41.5456 10.9164 40.9693 10.2921 40.3929 9.61972Z" fill="#108B62"/>
<path d="M23.5291 17.0646C21.1758 18.5054 19.6389 18.5054 17.7179 17.0646C16.7093 18.1692 15.4606 18.4573 14.0198 17.785C13.9718 18.8896 13.6356 19.8021 12.8672 20.5225C11.8586 21.531 10.6099 22.0113 9.16914 22.0593C7.92045 22.1074 6.62373 22.0593 5.37504 22.0593C2.73358 22.0593 0.476337 20.1383 0.140151 17.4968C0.044098 16.5843 0.0440979 15.6718 0.0440979 14.8073C0.0440979 13.3665 0.0440979 11.8777 0.0440979 10.4369C0.0440979 10.1007 0.140151 9.95665 0.524363 9.95665C1.24476 9.95665 1.96516 10.0047 2.68556 9.95665C3.06977 9.95665 3.16582 10.0527 3.16582 10.4369C3.16582 12.3099 3.16582 14.183 3.16582 16.056C3.16582 17.4968 3.98227 18.3613 5.47109 18.4093C6.67176 18.4093 7.92045 18.4093 9.12111 18.4093C10.3218 18.4093 10.9941 17.5448 10.9941 16.5363C10.9461 14.3751 10.9941 12.2139 10.9461 10.0527C10.9461 9.66849 11.0422 9.57243 11.4264 9.57243C12.1468 9.62046 12.8672 9.57243 13.5876 9.57243C13.9238 9.57243 14.0678 9.66849 14.0678 10.0527C14.0678 11.2534 14.0678 12.454 14.0678 13.6547C14.0678 14.3271 14.308 14.5192 14.9803 14.5192C15.1725 14.5192 15.3165 14.5192 15.5086 14.5192C15.9889 14.5192 16.2771 14.279 16.3251 13.8468C16.5652 12.5981 16.8534 11.3014 17.0935 10.0527C17.1415 9.71651 17.2856 9.62046 17.5738 9.66849C18.3902 9.81257 19.1587 9.90862 19.9751 10.0527C20.3113 10.1007 20.2633 10.2928 20.2152 10.533C19.9751 11.5895 19.783 12.6461 19.5909 13.7027C19.4948 14.279 19.6869 14.5192 20.3113 14.5192C20.6475 14.5192 20.9837 14.5192 21.3198 14.5192C21.8481 14.5192 22.0883 14.279 22.0883 13.7507C22.0883 12.358 22.0883 10.9172 22.0883 9.52441C22.0883 9.09217 22.1843 8.94809 22.6166 8.99612C23.2889 9.04414 23.9613 9.04414 24.6337 8.99612C25.0659 8.99612 25.21 9.09217 25.21 9.52441C25.162 10.8691 25.21 12.2139 25.21 13.5586C25.21 14.3271 25.3541 14.5192 26.1705 14.5192C27.2271 14.5192 28.2837 14.5192 29.3403 14.5192C29.9646 14.5192 30.1567 14.279 30.1567 13.7027C30.1567 12.2619 30.1567 10.8211 30.1567 9.38033C30.1567 9.04414 30.2528 8.90006 30.637 8.90006C31.3574 8.90006 32.0778 8.90006 32.7982 8.90006C33.1344 8.90006 33.2785 8.99612 33.2785 9.3323C33.2785 10.8691 33.2785 12.406 33.2785 13.9428C33.2304 16.2481 31.3094 18.1212 29.0041 18.1212C27.9475 18.1212 26.8429 18.1212 25.7863 18.0731C24.7778 18.0731 24.1054 17.6409 23.5291 17.0646Z" fill="#108B62"/>
<path d="M114.348 9.61972C116.509 7.07431 118.815 4.38483 121.168 1.64732C121.888 2.31969 122.561 2.89601 123.185 3.56838C123.233 3.6164 123.185 3.90456 123.089 4.04864C121.984 5.34536 120.88 6.64207 119.823 7.93879C119.679 8.08287 119.535 8.27498 119.343 8.51511C119.583 8.51511 119.727 8.56314 119.871 8.56314C122.321 8.56314 124.722 8.61116 127.171 8.56314C129.573 8.51511 131.59 10.3401 131.446 12.8855C131.398 13.5579 131.446 14.2783 131.35 14.9026C131.013 16.8237 129.332 18.2165 127.363 18.2165C122.513 18.2165 117.71 18.2165 112.859 18.2165C110.506 18.2165 108.681 16.3915 108.681 14.0382C108.681 10.4842 108.681 6.97826 108.681 3.4243C108.681 2.99206 108.825 2.84798 109.257 2.84798C109.93 2.89601 110.554 2.89601 111.226 2.84798C111.659 2.84798 111.755 2.99206 111.755 3.37627C111.755 6.6901 111.755 10.052 111.755 13.3658C111.755 13.5579 111.755 13.75 111.755 13.9421C111.803 14.3263 112.043 14.5665 112.475 14.5665C113.388 14.5665 114.3 14.5665 115.261 14.5665C119.343 14.5665 123.473 14.5665 127.555 14.5665C128.324 14.5665 128.372 14.5184 128.372 13.75C128.372 13.4138 128.372 13.0296 128.372 12.6934C128.372 12.1651 128.18 11.925 127.651 11.925C126.883 11.925 126.115 11.925 125.298 11.925C122.513 11.925 119.679 11.925 116.894 11.925C116.557 11.925 116.269 11.8289 116.029 11.5888C115.549 10.9164 114.973 10.3401 114.348 9.61972Z" fill="#108B62"/>
<path d="M92.5023 9.04263C91.4457 8.46631 90.3411 8.51433 89.1884 8.56236C87.4115 8.61039 86.0187 9.85908 85.6345 11.54C85.4904 12.2604 85.3463 12.9808 85.2022 13.7012C85.0582 14.4216 84.8661 14.5657 84.1457 14.5657C81.4081 14.5657 78.6226 14.5657 75.8851 14.5657C75.5009 14.5657 75.3088 14.6617 75.3088 15.094C75.3568 15.9584 75.3568 16.8229 75.3088 17.6874C75.3088 18.0716 75.4048 18.2157 75.789 18.2157C76.9417 18.2157 78.0943 18.2157 79.247 18.2157C79.7272 18.2157 79.7752 18.3117 79.6792 18.744C79.5351 19.3203 79.0068 19.7045 78.2864 19.7045C76.9417 19.7045 75.5489 19.7045 74.2042 19.7045C72.7634 19.7045 71.8509 18.84 71.8509 17.3512C71.8509 15.7183 71.8509 14.0854 71.8509 12.4525C71.8509 12.0203 71.7548 11.8762 71.3226 11.8762C70.6502 11.9242 69.9778 11.9242 69.2574 11.8762C68.8252 11.8762 68.7291 12.0203 68.7772 12.4045C68.7772 14.2775 68.7772 16.1505 68.7772 18.0236C68.7772 20.9532 71.1785 23.3545 74.1081 23.3545C75.3568 23.3545 76.5575 23.3545 77.8062 23.3545C80.4476 23.4026 82.945 21.3854 82.8009 18.5999C82.8009 18.2637 82.897 18.2157 83.2332 18.2157C83.7614 18.2157 84.2897 18.3117 84.77 18.1677C85.3943 17.9756 86.0187 17.5913 86.7391 17.2552C87.2674 17.9275 88.0838 18.2637 89.0924 18.2157C89.8608 18.2157 90.6773 18.2157 91.4937 18.2157C93.1266 18.2157 94.5674 16.7749 94.6154 15.142C94.6154 14.2295 94.6154 13.365 94.6154 12.4525C94.5194 10.9157 93.799 9.76302 92.5023 9.04263ZM91.5417 14.2295C91.5417 14.4696 91.3977 14.5657 91.1575 14.5657C90.7253 14.5657 90.3411 14.5657 89.9088 14.5657C89.4766 14.5657 89.0924 14.5657 88.6602 14.5657C88.324 14.5657 88.1799 14.4216 88.2759 14.0854C88.372 13.6051 88.42 13.1729 88.5161 12.6926C88.5641 12.3565 88.7562 12.1163 89.1404 12.1163C89.7167 12.1163 90.2931 12.1163 90.8694 12.1163C91.2536 12.1163 91.4457 12.3084 91.4937 12.6926C91.5417 13.1729 91.5417 13.7012 91.5417 14.2295Z" fill="#108B62"/>
<path d="M157.339 12.5027C157.147 12.7428 157.051 12.9829 156.859 13.175C155.178 14.7599 153.497 16.3448 151.768 17.9296C151.192 18.506 150.999 18.554 150.375 18.0257C149.03 16.9211 147.686 15.7685 146.341 14.6158C145.861 14.1836 145.332 13.7513 144.852 13.3191C144.372 12.8869 144.372 12.5987 144.804 12.1665C146.533 10.5336 148.262 8.90066 149.991 7.26776C150.519 6.7875 150.855 6.73947 151.432 7.21974C153.257 8.75658 155.034 10.3415 156.859 11.8783C157.051 12.0224 157.195 12.2625 157.339 12.5027Z" fill="#108B62"/>
<path d="M158.587 11.5902C158.347 11.4941 158.155 11.3981 157.963 11.302C156.138 9.71715 154.265 8.13228 152.44 6.5474C151.912 6.11516 151.912 5.827 152.392 5.34674C154.265 3.61779 156.138 1.88883 157.963 0.159877C158.251 -0.128282 158.539 0.0157973 158.828 0.25593C160.316 1.55265 161.805 2.84936 163.294 4.14608C163.678 4.48226 164.11 4.81845 164.495 5.20266C164.927 5.6349 164.927 5.87503 164.495 6.30727C162.718 7.9882 160.989 9.66913 159.212 11.302C159.068 11.3981 158.828 11.4461 158.587 11.5902Z" fill="#108B62"/>
<path d="M100.952 7.83869C101.817 7.26237 102.681 6.73408 103.545 6.15776C103.882 6.78211 104.218 7.40645 104.602 7.98277C105.226 9.1354 105.899 10.288 106.523 11.4407C107.772 13.7459 106.715 16.9157 104.362 17.8762C103.93 18.0683 103.449 18.1164 102.969 18.1644C101.817 18.2124 100.664 18.1644 99.5593 18.1644C97.7343 18.1644 96.2935 16.7236 96.2935 14.8986C96.2935 13.9861 96.2935 13.0255 96.2935 12.113C96.2935 11.7769 96.3895 11.6328 96.7738 11.6328C97.302 11.6328 97.8784 11.6328 98.4067 11.6328C98.7428 11.6328 98.8389 11.7769 98.8389 12.065C98.8389 12.6894 98.8389 13.3137 98.8389 13.9381C98.8389 14.3703 98.983 14.5624 99.4152 14.5144C100.568 14.5144 101.72 14.5144 102.873 14.5144C103.882 14.5144 104.314 13.842 103.834 12.9295C102.969 11.3446 102.105 9.80777 101.24 8.27093C101.096 8.17487 101.048 8.03079 100.952 7.83869Z" fill="#108B62"/>
<path d="M22.3323 26.0521C21.9481 26.0521 21.756 26.1001 21.804 26.5324C21.8521 27.9251 21.804 29.3179 21.804 30.7107C21.804 31.9594 21.804 31.9594 20.5554 31.9594C20.5073 31.9594 20.5073 31.9594 20.4593 31.9594C19.7869 32.0074 19.5948 31.8153 19.5948 31.1429C19.5948 30.9988 19.5948 30.8548 19.5948 30.7107C19.5468 29.8462 18.8744 29.1258 18.106 29.0778C17.8178 29.0778 17.4817 29.0778 17.1935 29.0778C16.4251 29.1258 15.8007 29.6541 15.6566 30.4225C15.6086 30.7587 15.5126 31.0469 15.4645 31.383C15.3685 31.8153 15.1284 32.0074 14.6961 32.0074C14.552 32.0074 14.408 32.0074 14.2639 32.0074C13.4474 32.0554 13.2073 31.9113 13.2073 31.0469C13.2073 29.558 13.2073 28.0692 13.2073 26.5804C13.2073 26.1001 13.0632 26.0041 12.631 26.0041C12.1987 26.0041 12.1027 26.1001 12.1027 26.5324C12.1027 28.1172 12.1027 29.6541 12.1027 31.239C12.1027 31.7673 11.9106 31.9594 11.3823 31.9594C11.0941 31.9594 10.806 31.9594 10.4698 31.9594C9.79741 31.9594 9.6053 31.7673 9.6053 31.1429C9.6053 29.6061 9.6053 28.0212 9.6053 26.4843C9.6053 26.0521 9.4132 26.0041 9.07701 26.0041C8.74083 26.0041 8.5007 26.0041 8.5007 26.4843C8.54872 28.0212 8.5007 29.6061 8.5007 31.1429C8.5007 31.7673 8.30859 31.9594 7.68424 31.9594C6.43555 31.9594 5.13884 31.9594 3.89015 31.9594C3.0737 31.9594 3.0737 31.9594 3.0737 32.7758V32.8238C3.12172 33.2081 3.2658 33.3521 3.60199 33.3041C4.13028 33.3041 4.65857 33.3041 5.23489 33.3041C5.33094 34.0245 4.99476 34.5048 4.32239 34.5048C3.69804 34.5048 3.02567 34.5048 2.40133 34.5048C1.6329 34.5048 1.10461 33.9765 1.10461 33.16C1.10461 32.4396 1.05658 31.7673 1.10461 31.0469C1.10461 30.6146 0.864477 30.6146 0.576318 30.6146C0.288159 30.6146 0 30.5666 0 31.0469C0 31.8633 0 32.6317 0 33.4482C0 34.7449 1.00856 35.7535 2.30527 35.7535C2.97764 35.7535 3.60199 35.7535 4.27436 35.7535C5.47502 35.7535 6.3395 34.937 6.3395 33.7363C6.3395 33.4002 6.43555 33.2561 6.81977 33.2561C7.58819 33.2561 8.40464 33.3521 9.07701 32.8238C9.12504 32.7758 9.26912 32.8238 9.31715 32.8719C10.0375 33.4002 10.854 33.2561 11.6704 33.2081C12.0066 33.2081 12.3908 32.8238 12.727 32.8238C13.1112 32.8238 13.4474 33.2081 13.8316 33.2081C14.6001 33.3041 15.4165 33.4002 15.9928 32.6798C16.8573 33.4002 18.2021 33.4962 19.1146 32.9679C19.2106 32.9199 19.3547 32.8719 19.4027 32.9679C19.883 33.3521 20.4593 33.3041 20.9876 33.3041C22.0442 33.3041 22.8606 32.4877 22.8606 31.4311C22.8606 29.7982 22.8606 28.1172 22.8606 26.4843C22.9087 26.0521 22.6685 26.0521 22.3323 26.0521ZM18.0099 32.0554C17.8659 32.0554 17.7218 32.0554 17.5777 32.0554C16.5211 32.0554 16.233 31.6232 16.7613 30.6626C16.8093 30.5666 16.9534 30.4705 17.0974 30.4225C17.1935 30.3745 17.2895 30.4225 17.3856 30.4225C18.5382 30.4225 18.5382 30.4225 18.5382 31.5751C18.5382 31.9113 18.3942 32.0554 18.0099 32.0554Z" fill="#108B62"/>
<path d="M95.6249 29.6004C96.0091 29.6484 96.2973 29.7445 96.6815 29.7925C96.5854 30.2728 96.4894 30.753 96.3933 31.1853C96.2973 31.6655 96.4413 31.9537 96.9216 32.0017C97.4499 32.0497 97.7381 31.8576 97.7861 31.3774C97.7861 30.801 97.8341 30.2728 97.7861 29.6964C97.7381 29.2162 98.0742 29.3122 98.3624 29.2642C98.6506 29.2642 98.8907 29.2162 98.8907 29.6484C98.8427 30.0806 98.8907 30.5129 98.8907 30.9932C98.8907 31.8576 98.9867 31.9537 99.8512 31.9537C101.916 31.9537 103.933 32.0017 105.999 32.0017C106.143 32.0017 106.287 32.0017 106.431 32.0017C106.575 32.0017 106.767 31.9537 106.767 31.9057C106.863 31.4734 106.959 31.0412 106.911 30.657C106.911 30.5129 106.527 30.3208 106.287 30.3208C104.846 30.2728 103.405 30.2728 101.964 30.3208C101.244 30.3688 100.812 30.0807 100.428 29.5043C101.436 28.3517 102.445 27.151 103.501 25.9504C103.789 26.1905 104.03 26.4306 104.27 26.6708C103.597 27.4872 102.925 28.2556 102.205 29.1201C102.493 29.1201 102.637 29.1681 102.829 29.1681C103.982 29.1681 105.182 29.1681 106.335 29.1681C107.295 29.1681 108.016 29.8405 108.064 30.8491C108.064 31.1372 108.064 31.4734 108.064 31.7616C108.016 32.6741 107.343 33.3945 106.431 33.3945C104.174 33.3945 101.868 33.3945 99.6111 33.3945C99.2749 33.3945 98.9387 33.1543 98.6025 33.0103C98.4585 32.9622 98.2663 32.9142 98.1703 32.9622C97.2578 33.5866 96.7295 33.5386 95.817 32.8662C94.6644 33.5866 94.2801 33.5866 93.2716 32.8662C91.9749 33.6346 91.5907 33.6346 90.2459 32.8662C89.7656 33.4425 89.0452 33.4425 88.3249 33.4425C87.1722 33.4425 86.0196 33.4425 84.8669 33.4425C83.6183 33.4425 82.7538 32.53 82.7057 31.3293C82.7057 30.801 82.7057 30.3208 82.7057 29.7925C82.7057 29.3122 83.0419 29.4563 83.2821 29.4083C83.5702 29.4083 83.8104 29.3603 83.7623 29.7925C83.7143 30.2247 83.7623 30.657 83.7623 31.1372C83.7623 31.7616 84.0985 32.1458 84.7229 32.1458C86.1637 32.1458 87.6045 32.1458 88.9972 32.1458C89.4295 32.1458 89.6696 31.9057 89.6696 31.4734C89.6696 30.9932 89.6696 30.5609 89.6696 30.0807C89.6696 29.6484 89.9578 29.6964 90.1979 29.6964C90.438 29.6964 90.7742 29.6484 90.7262 30.0807C90.7262 30.5609 90.7262 30.9932 90.7262 31.4734C90.7262 31.9537 90.9663 32.1458 91.4466 32.1458C91.5907 32.1458 91.7828 32.1458 91.9268 32.1458C92.3591 32.1458 92.5992 31.9057 92.5992 31.4734C92.5992 31.0412 92.6472 30.5609 92.5992 30.1287C92.5512 29.6964 92.8393 29.6964 93.1275 29.6964C93.4157 29.6964 93.7038 29.6484 93.7038 30.1287C93.6558 30.5609 93.7038 30.9932 93.7038 31.4254C93.7038 31.9057 93.944 32.1458 94.3762 32.1458C94.8565 32.1938 95.1446 32.0017 95.2407 31.5214C95.3848 30.8491 95.4808 30.2728 95.6249 29.6004Z" fill="#108B62"/>
<path d="M133.276 11.2511C133.276 9.18598 133.276 7.07281 133.276 5.00767C133.276 4.57543 133.372 4.38333 133.852 4.43135C134.572 4.47938 135.245 4.43135 135.965 4.43135C136.253 4.43135 136.397 4.52741 136.397 4.81556C136.397 9.13795 136.397 13.4603 136.397 17.7347C136.397 18.0709 136.253 18.1189 135.965 18.1189C135.245 18.1189 134.572 18.0709 133.852 18.1189C133.42 18.1189 133.276 18.0229 133.276 17.5426C133.276 15.4774 133.276 13.3643 133.276 11.2511Z" fill="#108B62"/>
<path d="M61.6704 30.2304C61.5744 29.3179 61.0461 28.7896 60.1816 28.5495C59.7013 28.4054 59.2211 28.2613 58.7408 28.0692C58.0684 27.8771 57.348 27.637 56.6277 27.4449C56.5796 27.685 56.5316 27.8771 56.4355 28.0692C56.2915 28.4534 56.4355 28.5975 56.7717 28.6936C57.6362 28.9337 58.4527 29.2218 59.3171 29.462C60.6139 29.8942 60.6138 29.8942 60.6138 31.239C60.6138 32.0074 60.6138 32.0074 59.8935 32.0074C58.9809 32.0074 58.9329 32.0074 58.981 31.0949C59.077 29.7982 57.9724 28.8376 56.4355 29.2699C55.5711 29.51 55.2829 30.2304 55.1869 30.9988C55.1388 31.335 55.1869 31.7673 55.0428 31.9113C54.8507 32.0554 54.4184 31.9594 54.0822 31.9594C53.3138 32.0074 53.1217 31.8153 53.1217 31.0469C53.1217 29.51 53.1217 28.0212 53.1217 26.4843C53.1217 26.0041 52.9296 26.0041 52.5454 26.0041C52.2092 26.0041 51.9691 26.0521 52.0171 26.4843C52.0651 28.1172 52.0171 29.7021 52.0171 31.335C52.0171 32.4877 52.7855 33.2561 53.9382 33.2561C54.8026 33.2561 55.6191 33.2561 56.4836 33.2561C57.252 33.2561 58.0684 33.3521 58.6928 32.6317C58.9329 33.2561 58.9329 33.2561 59.5573 33.2561C59.8454 33.2561 60.1336 33.2561 60.4217 33.2561C61.1421 33.2561 61.7185 32.8238 61.7665 32.1034C61.7185 31.5271 61.7185 30.8548 61.6704 30.2304ZM57.0119 32.0074C56.7237 31.9594 56.1954 32.1995 56.1474 31.5271C56.1474 30.5186 56.2915 30.3265 57.204 30.3265C57.8763 30.3265 57.8763 30.3745 57.8763 31.383C57.8763 32.0074 57.8763 32.0074 57.0119 32.0074Z" fill="#108B62"/>
<path d="M68.346 29.4545C69.3546 28.3018 70.3631 27.1012 71.4197 25.9005C71.7079 26.1406 71.948 26.3808 72.1881 26.6209C71.5158 27.4374 70.8914 28.2058 70.123 29.0703C70.4592 29.0703 70.6033 29.1183 70.7473 29.1183C71.9 29.1183 73.0526 29.1183 74.2052 29.1183C75.2618 29.1183 75.9342 29.7907 75.9822 30.8472C75.9822 31.1354 75.9822 31.3755 75.9822 31.6637C75.9342 32.5762 75.2138 33.2966 74.3013 33.2966C71.996 33.2966 69.7388 33.2966 67.4335 33.2966C66.4249 33.2966 65.6565 32.4801 65.6565 31.4236C65.6565 29.7426 65.6565 28.1097 65.6565 26.4288C65.6565 25.9966 65.8967 26.0446 66.1848 26.0446C66.473 26.0446 66.7611 25.9966 66.7611 26.4288C66.7611 27.9176 66.7611 29.3584 66.7611 30.8472C66.7611 31.8558 66.8092 31.9519 67.8657 31.9519C69.9309 31.9519 71.996 31.9999 74.0612 31.9999C74.3493 31.9999 74.8296 31.9038 74.8776 31.7597C74.9737 31.3755 74.9737 30.8953 74.8776 30.5111C74.8296 30.367 74.4454 30.2709 74.2533 30.2709C72.8125 30.2709 71.3717 30.2709 69.9789 30.2709C68.9704 30.2709 68.9223 30.2229 68.346 29.4545Z" fill="#108B62"/>
<path d="M36.064 32.8224C35.1515 33.5908 34.0469 33.3027 32.8943 33.1586C32.8462 33.783 32.6061 34.3593 32.0298 34.7435C31.8377 34.8876 31.6456 35.0316 31.4535 35.0316C30.3488 35.2238 29.1962 35.2718 28.0916 35.0316C27.1791 34.7915 26.5548 33.927 26.5067 33.0145C26.4587 32.054 26.5067 31.0935 26.5067 30.1329C26.5067 29.6046 26.8429 29.7487 27.1311 29.7487C27.4192 29.7007 27.6113 29.7487 27.6113 30.1329C27.6113 30.9494 27.6113 31.7658 27.6113 32.6303C27.6113 33.3507 27.9475 33.783 28.6679 33.879C29.3883 33.927 30.1087 33.927 30.7811 33.879C31.4535 33.831 31.7416 33.4468 31.7416 32.7744C31.7416 31.8619 31.7896 30.9494 31.7416 30.0849C31.7416 29.6046 31.9818 29.6046 32.3179 29.6046C32.7021 29.6046 32.8462 29.7007 32.7982 30.0849C32.7502 30.5172 32.7982 30.9494 32.7982 31.4297C32.7982 31.8619 33.0383 32.054 33.4706 32.054C33.9028 32.054 34.335 32.054 34.7673 32.054C35.3436 32.054 35.5357 31.8619 35.6318 31.3336C35.7278 30.9014 35.7758 30.4211 35.9199 29.9889C36.064 29.4125 36.4482 29.7968 36.7364 29.7968C37.0726 29.7968 37.0245 29.9889 36.9765 30.229C36.8805 30.5652 36.8324 30.9494 36.7844 31.2856C36.6883 31.7658 36.8805 32.006 37.4087 32.054C38.2252 32.054 39.0416 32.054 39.8581 32.054C40.2903 32.054 40.5305 31.8619 40.5305 31.3816C40.5305 30.8053 40.5305 30.277 40.5305 29.7007C40.5305 29.3645 40.6746 29.2685 40.9627 29.3165C41.2028 29.3645 41.6351 29.1244 41.6351 29.6527C41.6351 30.3731 41.6351 31.0454 41.5871 31.7658C41.539 32.5823 40.7226 33.3027 39.8101 33.3507C38.9936 33.3507 38.1291 33.3987 37.3127 33.3507C36.9285 33.2547 36.5443 33.0145 36.064 32.8224Z" fill="#108B62"/>
<path d="M122.039 29.2717C121.75 29.2717 121.51 29.2717 121.51 29.704C121.51 30.3283 121.51 30.9527 121.51 31.577C121.51 31.6731 121.462 31.9132 121.462 31.9132C121.126 31.9612 120.79 32.0092 120.502 31.9132C120.358 31.8652 120.166 31.529 120.166 31.2888C120.166 30.9046 120.262 30.5204 120.406 30.1842C120.502 29.8 120.262 29.752 120.021 29.704C119.781 29.6559 119.445 29.4638 119.349 29.9441C119.253 30.4244 119.157 30.9046 119.061 31.3849C118.965 31.8652 118.677 32.0573 118.148 32.0092C117.668 31.9612 117.524 31.6731 117.524 31.2408C117.524 30.8086 117.524 30.3283 117.524 29.8961C117.524 29.4638 117.236 29.5599 116.948 29.5119C116.708 29.5119 116.371 29.4158 116.42 29.8961C116.42 30.3763 116.468 30.8566 116.42 31.3369C116.42 31.529 116.275 31.8171 116.131 31.8652C115.267 32.3934 114.354 31.8652 114.354 30.8566C114.354 29.848 114.354 28.8395 114.354 27.879C114.354 27.5908 114.162 27.4947 113.922 27.4947C113.682 27.5428 113.298 27.3507 113.346 27.7829C113.346 28.1671 113.154 28.3112 112.818 28.3592C112.577 28.4072 112.385 28.4553 112.193 28.5033C110.656 28.7434 110.272 29.9921 110.464 31.1928C110.56 31.8652 110.993 32.2974 111.521 32.3454C112.097 32.3934 112.625 32.3934 113.202 32.3454C113.49 32.2974 113.634 32.3454 113.778 32.5856C114.114 33.0178 114.546 33.2099 115.075 33.2099C115.795 33.2099 116.468 33.2099 116.948 32.6336C118.148 33.402 118.485 33.402 119.541 32.6336C120.214 33.2099 120.31 33.2099 121.366 33.2099C122.087 33.2099 122.615 32.6816 122.663 31.9612C122.663 31.1448 122.663 30.3763 122.663 29.5599C122.615 29.2237 122.327 29.3198 122.039 29.2717ZM113.25 30.9527C113.25 31.0487 113.058 31.1928 112.962 31.1928C112.673 31.2408 112.385 31.1928 112.049 31.1928C111.473 31.1928 111.377 31.0487 111.473 30.4724C111.569 30.1362 111.713 29.848 112.097 29.752C112.433 29.6559 112.818 29.5599 113.25 29.4638C113.298 30.0401 113.298 30.5204 113.25 30.9527Z" fill="#108B62"/>
<path d="M137.309 30.7078C137.261 29.9394 136.685 29.267 135.964 29.123C135.676 29.0749 135.34 29.0749 135.004 29.0749C134.187 29.0749 133.563 29.6032 133.371 30.4197C133.323 30.7078 133.275 30.996 133.179 31.2842C133.035 31.9085 132.987 31.9085 132.074 31.9565C131.594 32.0046 131.354 31.7644 131.21 31.3322C130.922 30.2756 130.633 29.219 130.345 28.1624C130.249 27.9223 130.249 27.6341 129.865 27.7782C129.577 27.9223 129.097 27.8743 129.289 28.4506C129.529 29.219 129.721 30.0355 129.961 30.8039C130.153 31.5243 129.865 31.9085 129.145 31.9085C128.953 31.9085 128.712 31.9085 128.52 31.9085C127.512 31.9085 127.464 31.9085 127.464 30.8999C127.464 30.5157 127.32 30.4677 126.983 30.4677C126.647 30.4677 126.503 30.5638 126.503 30.8999C126.503 31.2361 126.503 31.5243 126.503 31.8605C126.503 32.4848 126.839 33.0131 127.416 33.1092C128.424 33.2532 129.433 33.4454 130.393 32.869C130.489 32.821 130.73 32.773 130.826 32.821C131.786 33.4453 132.747 33.4454 133.659 32.6769C134.091 33.2532 134.668 33.2532 135.34 33.2532C135.532 33.2532 135.772 33.2532 135.964 33.2532C136.733 33.2532 137.261 32.725 137.309 32.0046C137.309 31.6203 137.309 31.1401 137.309 30.7078ZM136.205 31.7164C136.205 31.8124 136.012 31.9565 135.916 32.0046C135.724 32.0526 135.532 32.0046 135.292 32.0046C134.235 32.0046 133.947 31.5243 134.524 30.6118C134.572 30.5157 134.764 30.4197 134.908 30.3717C134.956 30.3236 135.052 30.3717 135.148 30.3717C136.205 30.3717 136.445 30.6118 136.205 31.7164Z" fill="#108B62"/>
<path d="M17.6717 7.70349C16.8553 7.70349 16.0868 7.70349 15.2704 7.70349C14.9822 7.70349 14.8862 7.60744 14.8862 7.31928C14.8862 6.64691 14.8862 5.97454 14.8862 5.30217C14.8862 4.96598 15.0302 4.86993 15.3184 4.86993C16.2309 4.86993 16.1829 4.8219 16.2309 3.95742C16.2309 3.52519 16.1349 2.90084 16.375 2.66071C16.5671 2.42058 17.1914 2.56466 17.6717 2.56466C18.0079 2.56466 18.2961 2.56466 18.6322 2.56466C18.9684 2.56466 19.1125 2.66071 19.0645 2.99689C19.0645 3.47716 19.0645 4.00545 19.0645 4.48572C19.0645 4.8219 19.1605 4.91796 19.4967 4.96598C20.5533 5.01401 20.5533 5.01401 20.5533 6.02256C20.5533 6.40678 20.5053 6.79099 20.5533 7.1752C20.6013 7.60744 20.4572 7.79955 19.977 7.75152C19.2086 7.65547 18.4401 7.70349 17.6717 7.70349Z" fill="#108B62"/>
<path d="M47.3514 35.3141C47.0633 35.3141 46.7271 35.2661 46.4389 35.3141C45.2382 35.4582 43.9896 34.5457 43.8935 32.8647C43.8455 32.2404 43.8935 31.616 43.8935 30.9437C43.8935 30.5114 44.1817 30.5595 44.4218 30.5595C44.71 30.5595 44.9981 30.4634 44.9981 30.9437C44.9981 31.472 44.9981 32.0002 44.9981 32.5766C44.9981 33.5371 45.5264 34.0174 46.4389 34.0174C47.1113 34.0174 47.8317 34.0654 48.5041 34.0174C48.7922 34.0174 49.1284 33.8253 49.3205 33.6331C49.7527 33.1529 49.5606 32.7687 48.9843 32.6246C48.3119 32.4805 47.5915 32.2884 46.9192 32.1443C46.631 32.0963 46.4869 31.9522 46.535 31.6641C46.583 31.3279 46.535 30.9437 46.583 30.6075C46.8231 29.3108 47.4955 28.7344 48.9843 28.5904C49.0323 28.5904 49.0804 28.5904 49.1284 28.5904C49.9448 28.5423 50.0409 28.5904 50.0409 29.4548C50.0409 29.5509 49.8008 29.743 49.6567 29.743C49.3205 29.8391 48.9363 29.8391 48.5521 29.8871C47.9277 29.9831 47.5915 30.3193 47.5435 30.7996C47.5435 31.0877 47.6396 31.2318 47.8797 31.2799C48.36 31.3759 48.7922 31.472 49.2725 31.568C50.3771 31.8081 50.7133 32.2884 50.5692 33.393C50.4251 34.4976 49.5606 35.3141 48.408 35.3141C48.1198 35.3141 47.7356 35.3141 47.3514 35.3141Z" fill="#108B62"/>
<path d="M134.764 0.543218C135.436 0.543218 136.06 0.591245 136.733 0.543218C137.165 0.543218 137.261 0.687298 137.213 1.07151C137.165 1.5998 137.165 2.12809 137.213 2.70441C137.261 3.13665 137.069 3.2327 136.685 3.18468C135.436 3.18468 134.187 3.18468 132.987 3.18468C132.554 3.18468 132.266 3.28073 132.314 3.80902C132.314 3.90507 132.122 4.04915 131.978 4.14521H131.93C131.45 4.04915 130.826 4.43337 130.537 3.9531C130.153 3.28073 130.585 1.69585 131.162 1.21559C131.642 0.783351 132.218 0.639272 132.843 0.591245C133.467 0.495192 134.091 0.543218 134.764 0.543218Z" fill="#108B62"/>
<path d="M81.266 30.6531C81.266 29.8847 80.5456 29.1162 79.8252 29.0682C78.3844 28.9722 77.4719 29.0682 77.2318 31.0373C77.2318 31.1334 77.1837 31.1814 77.1837 31.2774C76.9436 32.382 77.712 33.2945 78.8166 33.2945C79.2489 33.2945 79.6811 33.2945 80.1614 33.2945C80.0173 34.7353 78.6245 34.4952 77.7601 35.0715C77.8561 35.3597 77.9522 35.6959 78.0962 36.0801C78.7686 35.84 79.3449 35.6478 79.9212 35.4077C80.7377 34.9755 81.218 34.2551 81.266 33.3426C81.314 32.4301 81.314 31.5656 81.266 30.6531ZM80.2094 31.0853C80.2094 32.0939 80.3535 32.0459 79.2489 32.1419C78.9607 32.0459 78.3844 31.9498 78.3844 31.8057C78.2883 31.4215 78.4324 30.9893 78.5285 30.6051C78.5765 30.509 78.8166 30.413 78.9607 30.3649C79.2008 30.3169 79.441 30.3169 79.7291 30.3649C80.0653 30.413 80.2574 30.6051 80.2574 30.9413V31.0853H80.2094Z" fill="#108B62"/>
<path d="M62.6728 4.42991C63.4412 4.42991 64.2096 4.42991 64.978 4.42991C65.4103 4.42991 65.5063 4.57399 65.4583 4.9582C65.4103 5.58255 65.4583 6.20689 65.4583 6.87926C65.4583 7.21545 65.3623 7.35953 64.978 7.35953C63.4412 7.35953 61.8563 7.35953 60.3195 7.35953C59.9833 7.35953 59.8392 7.26347 59.8392 6.92729C59.8872 6.30294 59.8872 5.63057 59.8392 4.9582C59.8392 4.57399 59.9353 4.42991 60.3195 4.47794C61.1359 4.42991 61.9043 4.42991 62.6728 4.42991Z" fill="#108B62"/>
<path d="M60.702 35.0306C61.1823 34.8865 61.5665 34.7424 61.9987 34.5984C62.8152 34.3102 63.1033 33.926 63.1033 33.0615C63.1033 32.0529 63.1033 31.0444 63.1033 30.0358C63.1033 29.6036 63.2954 29.6036 63.6316 29.6036C63.9678 29.6036 64.2079 29.6036 64.2079 30.0358C64.1599 31.0924 64.2079 32.149 64.2079 33.1576C64.1599 34.3582 63.5836 35.1266 62.479 35.5589C62.1908 35.6549 61.8546 35.751 61.5665 35.8951C61.1823 36.0391 60.9902 35.9911 60.8941 35.5589C60.8461 35.4148 60.798 35.2707 60.702 35.0306Z" fill="#108B62"/>
<path d="M121.651 35.0239C122.083 34.8798 122.467 34.7358 122.899 34.6397C123.764 34.3516 124.1 33.9193 124.1 33.0068C124.1 32.0463 124.1 31.0377 124.1 30.0772C124.1 29.5489 124.436 29.645 124.724 29.645C125.06 29.645 125.204 29.693 125.204 30.0772C125.156 31.2298 125.204 32.4305 125.108 33.5831C125.06 34.4956 124.484 35.12 123.668 35.5042C123.283 35.6963 122.803 35.7923 122.419 35.9845C122.083 36.1285 121.939 36.0325 121.843 35.6963C121.795 35.4081 121.699 35.2641 121.651 35.0239Z" fill="#108B62"/>
<path d="M24.1573 29.6975C24.1573 28.6409 24.1573 27.5844 24.1573 26.5278C24.1573 26.0475 24.3975 26.0955 24.7336 26.0955C25.0698 26.0955 25.2619 26.0955 25.2619 26.5278C25.2619 28.6409 25.2619 30.8021 25.2619 32.9153C25.2619 33.3475 25.0698 33.3956 24.7336 33.3475C24.3975 33.3475 24.1573 33.3956 24.1573 32.9153C24.2053 31.8107 24.1573 30.7541 24.1573 29.6975Z" fill="#108B62"/>
<path d="M30.0682 5.92026C30.1162 5.48803 29.9722 4.86368 30.2123 4.67158C30.5005 4.43144 31.0768 4.5275 31.509 4.5275C32.8538 4.5275 32.8538 4.5275 32.8538 5.87224C32.8538 6.20842 32.8538 6.59263 32.8538 6.92882C32.8538 7.21698 32.7577 7.36106 32.4695 7.36106C31.7972 7.36106 31.1248 7.36106 30.4524 7.36106C30.1643 7.36106 30.0202 7.26501 30.0682 6.97685C30.1162 6.59263 30.1162 6.25645 30.0682 5.92026Z" fill="#108B62"/>
<path d="M86.6432 35.8895C86.0669 36.0816 86.1149 35.6494 86.1149 35.2652C86.0669 34.7849 86.259 34.6888 86.6912 34.7369C87.3156 34.7849 87.2676 34.7369 87.3156 35.3612C87.3636 35.8895 87.0755 35.9375 86.6432 35.8895Z" fill="#108B62"/>
<path d="M30.2079 28.9239C30.3039 29.4042 30.0638 29.4522 29.6315 29.5002C29.1033 29.5482 29.1033 29.2601 29.1033 28.8759C29.0552 28.3956 29.2954 28.3476 29.7276 28.2996C30.2559 28.2996 30.3039 28.5397 30.2079 28.9239Z" fill="#108B62"/>
<path d="M35.7317 35.2633C35.8278 35.7435 35.5876 35.7915 35.2034 35.8396C34.7232 35.8396 34.6751 35.6475 34.6271 35.2633C34.6271 34.783 34.8192 34.735 35.2034 34.735C35.7317 34.6869 35.8278 34.879 35.7317 35.2633Z" fill="#108B62"/>
<path d="M37.5593 35.2695C37.6553 35.7018 37.4632 35.8458 37.031 35.8458C36.5988 35.8458 36.4547 35.7018 36.4547 35.2695C36.4547 34.8373 36.5988 34.6932 37.031 34.6932C37.4632 34.6932 37.6553 34.8373 37.5593 35.2695Z" fill="#108B62"/>
<path d="M38.5145 35.2695C38.4184 34.8373 38.5625 34.6932 39.0428 34.6932C39.475 34.6932 39.6191 34.8373 39.6191 35.2695C39.6191 35.7018 39.475 35.8458 39.0428 35.8458C38.6105 35.8458 38.4184 35.7498 38.5145 35.2695Z" fill="#108B62"/>
</svg>
